<?xml version="1.0" encoding="utf-8"?>
<!-- Generator: Adobe Illustrator 27.3.1, SVG Export Plug-In . SVG Version: 6.00 Build 0)  -->
<svg version="1.1" id="Layer_1" xmlns="http://www.w3.org/2000/svg" xmlns:xlink="http://www.w3.org/1999/xlink" x="0px" y="0px"
	 viewBox="0 0 300 250" style="enable-background:new 0 0 300 250;" xml:space="preserve">
<style type="text/css">
	.st0{fill:#EAEAEA;}
</style>
<circle class="st0" cx="7.1" cy="8.2" r="4"/>
<circle class="st0" cx="23.6" cy="8.2" r="4"/>
<circle class="st0" cx="40.1" cy="8.2" r="4"/>
<circle class="st0" cx="56.6" cy="8.2" r="4"/>
<circle class="st0" cx="73.1" cy="8.2" r="4"/>
<circle class="st0" cx="89.5" cy="8.2" r="4"/>
<circle class="st0" cx="106" cy="8.2" r="4"/>
<circle class="st0" cx="122.5" cy="8.2" r="4"/>
<circle class="st0" cx="139" cy="8.2" r="4"/>
<circle class="st0" cx="155.4" cy="8.2" r="4"/>
<circle class="st0" cx="171.9" cy="8.2" r="4"/>
<circle class="st0" cx="188.4" cy="8.2" r="4"/>
<circle class="st0" cx="204.9" cy="8.2" r="4"/>
<circle class="st0" cx="221.3" cy="8.2" r="4"/>
<circle class="st0" cx="237.8" cy="8.2" r="4"/>
<circle class="st0" cx="254.3" cy="8.2" r="4"/>
<circle class="st0" cx="270.8" cy="8.2" r="4"/>
<circle class="st0" cx="287.3" cy="8.2" r="4"/>
<circle class="st0" cx="7.1" cy="23.2" r="4"/>
<circle class="st0" cx="23.6" cy="23.2" r="4"/>
<circle class="st0" cx="40.1" cy="23.2" r="4"/>
<circle class="st0" cx="56.6" cy="23.2" r="4"/>
<circle class="st0" cx="73.1" cy="23.2" r="4"/>
<circle class="st0" cx="89.5" cy="23.2" r="4"/>
<circle class="st0" cx="106" cy="23.2" r="4"/>
<circle class="st0" cx="122.5" cy="23.2" r="4"/>
<circle class="st0" cx="139" cy="23.2" r="4"/>
<circle class="st0" cx="155.4" cy="23.2" r="4"/>
<circle class="st0" cx="171.9" cy="23.2" r="4"/>
<circle class="st0" cx="188.4" cy="23.2" r="4"/>
<circle class="st0" cx="204.9" cy="23.2" r="4"/>
<circle class="st0" cx="221.3" cy="23.2" r="4"/>
<circle class="st0" cx="237.8" cy="23.2" r="4"/>
<circle class="st0" cx="254.3" cy="23.2" r="4"/>
<circle class="st0" cx="270.8" cy="23.2" r="4"/>
<circle class="st0" cx="287.3" cy="23.2" r="4"/>
<circle class="st0" cx="7.1" cy="38.3" r="4"/>
<circle class="st0" cx="23.6" cy="38.3" r="4"/>
<circle class="st0" cx="40.1" cy="38.3" r="4"/>
<circle class="st0" cx="56.6" cy="38.3" r="4"/>
<circle class="st0" cx="73.1" cy="38.3" r="4"/>
<circle class="st0" cx="89.5" cy="38.3" r="4"/>
<circle class="st0" cx="106" cy="38.3" r="4"/>
<circle class="st0" cx="122.5" cy="38.3" r="4"/>
<circle class="st0" cx="139" cy="38.3" r="4"/>
<circle class="st0" cx="155.4" cy="38.3" r="4"/>
<circle class="st0" cx="171.9" cy="38.3" r="4"/>
<circle class="st0" cx="188.4" cy="38.3" r="4"/>
<circle class="st0" cx="204.9" cy="38.3" r="4"/>
<circle class="st0" cx="221.3" cy="38.3" r="4"/>
<circle class="st0" cx="237.8" cy="38.3" r="4"/>
<circle class="st0" cx="254.3" cy="38.3" r="4"/>
<circle class="st0" cx="270.8" cy="38.3" r="4"/>
<circle class="st0" cx="287.3" cy="38.3" r="4"/>
<circle class="st0" cx="7.1" cy="53.3" r="4"/>
<circle class="st0" cx="23.6" cy="53.3" r="4"/>
<circle class="st0" cx="40.1" cy="53.3" r="4"/>
<circle class="st0" cx="56.6" cy="53.3" r="4"/>
<circle class="st0" cx="73.1" cy="53.3" r="4"/>
<circle class="st0" cx="89.5" cy="53.3" r="4"/>
<circle class="st0" cx="106" cy="53.3" r="4"/>
<circle class="st0" cx="122.5" cy="53.3" r="4"/>
<circle class="st0" cx="139" cy="53.3" r="4"/>
<circle class="st0" cx="155.4" cy="53.3" r="4"/>
<circle class="st0" cx="171.9" cy="53.3" r="4"/>
<circle class="st0" cx="188.4" cy="53.3" r="4"/>
<circle class="st0" cx="204.9" cy="53.3" r="4"/>
<circle class="st0" cx="221.3" cy="53.3" r="4"/>
<circle class="st0" cx="237.8" cy="53.3" r="4"/>
<circle class="st0" cx="254.3" cy="53.3" r="4"/>
<circle class="st0" cx="270.8" cy="53.3" r="4"/>
<circle class="st0" cx="287.3" cy="53.3" r="4"/>
<circle class="st0" cx="7.1" cy="68.4" r="4"/>
<circle class="st0" cx="23.6" cy="68.4" r="4"/>
<circle class="st0" cx="40.1" cy="68.4" r="4"/>
<circle class="st0" cx="56.6" cy="68.4" r="4"/>
<circle class="st0" cx="73.1" cy="68.4" r="4"/>
<circle class="st0" cx="89.5" cy="68.4" r="4"/>
<circle class="st0" cx="106" cy="68.4" r="4"/>
<circle class="st0" cx="122.5" cy="68.4" r="4"/>
<circle class="st0" cx="139" cy="68.4" r="4"/>
<circle class="st0" cx="155.4" cy="68.4" r="4"/>
<circle class="st0" cx="171.9" cy="68.4" r="4"/>
<circle class="st0" cx="188.4" cy="68.4" r="4"/>
<circle class="st0" cx="204.9" cy="68.4" r="4"/>
<circle class="st0" cx="221.3" cy="68.4" r="4"/>
<circle class="st0" cx="237.8" cy="68.4" r="4"/>
<circle class="st0" cx="254.3" cy="68.4" r="4"/>
<circle class="st0" cx="270.8" cy="68.4" r="4"/>
<circle class="st0" cx="287.3" cy="68.4" r="4"/>
<circle class="st0" cx="7.1" cy="83.5" r="4"/>
<circle class="st0" cx="23.6" cy="83.5" r="4"/>
<circle class="st0" cx="40.1" cy="83.5" r="4"/>
<circle class="st0" cx="56.6" cy="83.5" r="4"/>
<circle class="st0" cx="73.1" cy="83.5" r="4"/>
<circle class="st0" cx="89.5" cy="83.5" r="4"/>
<circle class="st0" cx="106" cy="83.5" r="4"/>
<circle class="st0" cx="122.5" cy="83.5" r="4"/>
<circle class="st0" cx="139" cy="83.5" r="4"/>
<circle class="st0" cx="155.4" cy="83.5" r="4"/>
<circle class="st0" cx="171.9" cy="83.5" r="4"/>
<circle class="st0" cx="188.4" cy="83.5" r="4"/>
<circle class="st0" cx="204.9" cy="83.5" r="4"/>
<circle class="st0" cx="221.3" cy="83.5" r="4"/>
<circle class="st0" cx="237.8" cy="83.5" r="4"/>
<circle class="st0" cx="254.3" cy="83.5" r="4"/>
<circle class="st0" cx="270.8" cy="83.5" r="4"/>
<circle class="st0" cx="287.3" cy="83.5" r="4"/>
<circle class="st0" cx="7.1" cy="98.5" r="4"/>
<circle class="st0" cx="23.6" cy="98.5" r="4"/>
<circle class="st0" cx="40.1" cy="98.5" r="4"/>
<circle class="st0" cx="56.6" cy="98.5" r="4"/>
<circle class="st0" cx="73.1" cy="98.5" r="4"/>
<circle class="st0" cx="89.5" cy="98.5" r="4"/>
<circle class="st0" cx="106" cy="98.5" r="4"/>
<circle class="st0" cx="122.5" cy="98.5" r="4"/>
<circle class="st0" cx="139" cy="98.5" r="4"/>
<circle class="st0" cx="155.4" cy="98.5" r="4"/>
<circle class="st0" cx="171.9" cy="98.5" r="4"/>
<circle class="st0" cx="188.4" cy="98.5" r="4"/>
<circle class="st0" cx="204.9" cy="98.5" r="4"/>
<circle class="st0" cx="221.3" cy="98.5" r="4"/>
<circle class="st0" cx="237.8" cy="98.5" r="4"/>
<circle class="st0" cx="254.3" cy="98.5" r="4"/>
<circle class="st0" cx="270.8" cy="98.5" r="4"/>
<circle class="st0" cx="287.3" cy="98.5" r="4"/>
<circle class="st0" cx="7.1" cy="113.6" r="4"/>
<circle class="st0" cx="23.6" cy="113.6" r="4"/>
<circle class="st0" cx="40.1" cy="113.6" r="4"/>
<circle class="st0" cx="56.6" cy="113.6" r="4"/>
<circle class="st0" cx="73.1" cy="113.6" r="4"/>
<circle class="st0" cx="89.5" cy="113.6" r="4"/>
<circle class="st0" cx="106" cy="113.6" r="4"/>
<circle class="st0" cx="122.5" cy="113.6" r="4"/>
<circle class="st0" cx="139" cy="113.6" r="4"/>
<circle class="st0" cx="155.4" cy="113.6" r="4"/>
<circle class="st0" cx="171.9" cy="113.6" r="4"/>
<circle class="st0" cx="188.4" cy="113.6" r="4"/>
<circle class="st0" cx="204.9" cy="113.6" r="4"/>
<circle class="st0" cx="221.3" cy="113.6" r="4"/>
<circle class="st0" cx="237.8" cy="113.6" r="4"/>
<circle class="st0" cx="254.3" cy="113.6" r="4"/>
<circle class="st0" cx="270.8" cy="113.6" r="4"/>
<circle class="st0" cx="287.3" cy="113.6" r="4"/>
<circle class="st0" cx="7.1" cy="128.6" r="4"/>
<circle class="st0" cx="23.6" cy="128.6" r="4"/>
<circle class="st0" cx="40.1" cy="128.6" r="4"/>
<circle class="st0" cx="56.6" cy="128.6" r="4"/>
<circle class="st0" cx="73.1" cy="128.6" r="4"/>
<circle class="st0" cx="89.5" cy="128.6" r="4"/>
<circle class="st0" cx="106" cy="128.6" r="4"/>
<circle class="st0" cx="122.5" cy="128.6" r="4"/>
<circle class="st0" cx="139" cy="128.6" r="4"/>
<circle class="st0" cx="155.4" cy="128.6" r="4"/>
<circle class="st0" cx="171.9" cy="128.6" r="4"/>
<circle class="st0" cx="188.4" cy="128.6" r="4"/>
<circle class="st0" cx="204.9" cy="128.6" r="4"/>
<circle class="st0" cx="221.3" cy="128.6" r="4"/>
<circle class="st0" cx="237.8" cy="128.6" r="4"/>
<circle class="st0" cx="254.3" cy="128.6" r="4"/>
<circle class="st0" cx="270.8" cy="128.6" r="4"/>
<circle class="st0" cx="287.3" cy="128.6" r="4"/>
<circle class="st0" cx="7.1" cy="143.7" r="4"/>
<circle class="st0" cx="23.6" cy="143.7" r="4"/>
<circle class="st0" cx="40.1" cy="143.7" r="4"/>
<circle class="st0" cx="56.6" cy="143.7" r="4"/>
<circle class="st0" cx="73.1" cy="143.7" r="4"/>
<circle class="st0" cx="89.5" cy="143.7" r="4"/>
<circle class="st0" cx="106" cy="143.7" r="4"/>
<circle class="st0" cx="122.5" cy="143.7" r="4"/>
<circle class="st0" cx="139" cy="143.7" r="4"/>
<circle class="st0" cx="155.4" cy="143.7" r="4"/>
<circle class="st0" cx="171.9" cy="143.7" r="4"/>
<circle class="st0" cx="188.4" cy="143.7" r="4"/>
<circle class="st0" cx="204.9" cy="143.7" r="4"/>
<circle class="st0" cx="221.3" cy="143.7" r="4"/>
<circle class="st0" cx="237.8" cy="143.7" r="4"/>
<circle class="st0" cx="254.3" cy="143.7" r="4"/>
<circle class="st0" cx="270.8" cy="143.7" r="4"/>
<circle class="st0" cx="287.3" cy="143.7" r="4"/>
<circle class="st0" cx="7.1" cy="158.7" r="4"/>
<circle class="st0" cx="23.6" cy="158.7" r="4"/>
<circle class="st0" cx="40.1" cy="158.7" r="4"/>
<circle class="st0" cx="56.6" cy="158.7" r="4"/>
<circle class="st0" cx="73.1" cy="158.7" r="4"/>
<circle class="st0" cx="89.5" cy="158.7" r="4"/>
<circle class="st0" cx="106" cy="158.7" r="4"/>
<circle class="st0" cx="122.5" cy="158.7" r="4"/>
<circle class="st0" cx="139" cy="158.7" r="4"/>
<circle class="st0" cx="155.4" cy="158.7" r="4"/>
<circle class="st0" cx="171.9" cy="158.7" r="4"/>
<circle class="st0" cx="188.4" cy="158.7" r="4"/>
<circle class="st0" cx="204.9" cy="158.7" r="4"/>
<circle class="st0" cx="221.3" cy="158.7" r="4"/>
<circle class="st0" cx="237.8" cy="158.7" r="4"/>
<circle class="st0" cx="254.3" cy="158.7" r="4"/>
<circle class="st0" cx="270.8" cy="158.7" r="4"/>
<circle class="st0" cx="287.3" cy="158.7" r="4"/>
<circle class="st0" cx="7.1" cy="173.8" r="4"/>
<circle class="st0" cx="23.6" cy="173.8" r="4"/>
<circle class="st0" cx="40.1" cy="173.8" r="4"/>
<circle class="st0" cx="56.6" cy="173.8" r="4"/>
<circle class="st0" cx="73.1" cy="173.8" r="4"/>
<circle class="st0" cx="89.5" cy="173.8" r="4"/>
<circle class="st0" cx="106" cy="173.8" r="4"/>
<circle class="st0" cx="122.5" cy="173.8" r="4"/>
<circle class="st0" cx="139" cy="173.8" r="4"/>
<circle class="st0" cx="155.4" cy="173.8" r="4"/>
<circle class="st0" cx="171.9" cy="173.8" r="4"/>
<circle class="st0" cx="188.4" cy="173.8" r="4"/>
<circle class="st0" cx="204.9" cy="173.8" r="4"/>
<circle class="st0" cx="221.3" cy="173.8" r="4"/>
<circle class="st0" cx="237.8" cy="173.8" r="4"/>
<circle class="st0" cx="254.3" cy="173.8" r="4"/>
<circle class="st0" cx="270.8" cy="173.8" r="4"/>
<circle class="st0" cx="287.3" cy="173.8" r="4"/>
<circle class="st0" cx="7.1" cy="188.9" r="4"/>
<circle class="st0" cx="23.6" cy="188.9" r="4"/>
<circle class="st0" cx="40.1" cy="188.9" r="4"/>
<circle class="st0" cx="56.6" cy="188.9" r="4"/>
<circle class="st0" cx="73.1" cy="188.9" r="4"/>
<circle class="st0" cx="89.5" cy="188.9" r="4"/>
<circle class="st0" cx="106" cy="188.9" r="4"/>
<circle class="st0" cx="122.5" cy="188.9" r="4"/>
<circle class="st0" cx="139" cy="188.9" r="4"/>
<circle class="st0" cx="155.4" cy="188.9" r="4"/>
<circle class="st0" cx="171.9" cy="188.9" r="4"/>
<circle class="st0" cx="188.4" cy="188.9" r="4"/>
<circle class="st0" cx="204.9" cy="188.9" r="4"/>
<circle class="st0" cx="221.3" cy="188.9" r="4"/>
<circle class="st0" cx="237.8" cy="188.9" r="4"/>
<circle class="st0" cx="254.3" cy="188.9" r="4"/>
<circle class="st0" cx="270.8" cy="188.9" r="4"/>
<circle class="st0" cx="287.3" cy="188.9" r="4"/>
<circle class="st0" cx="7.1" cy="203.9" r="4"/>
<circle class="st0" cx="23.6" cy="203.9" r="4"/>
<circle class="st0" cx="40.1" cy="203.9" r="4"/>
<circle class="st0" cx="56.6" cy="203.9" r="4"/>
<circle class="st0" cx="73.1" cy="203.9" r="4"/>
<circle class="st0" cx="89.5" cy="203.9" r="4"/>
<circle class="st0" cx="106" cy="203.9" r="4"/>
<circle class="st0" cx="122.5" cy="203.9" r="4"/>
<circle class="st0" cx="139" cy="203.9" r="4"/>
<circle class="st0" cx="155.4" cy="203.9" r="4"/>
<circle class="st0" cx="171.9" cy="203.9" r="4"/>
<circle class="st0" cx="188.4" cy="203.9" r="4"/>
<circle class="st0" cx="204.9" cy="203.9" r="4"/>
<circle class="st0" cx="221.3" cy="203.9" r="4"/>
<circle class="st0" cx="237.8" cy="203.9" r="4"/>
<circle class="st0" cx="254.3" cy="203.9" r="4"/>
<circle class="st0" cx="270.8" cy="203.9" r="4"/>
<circle class="st0" cx="287.3" cy="203.9" r="4"/>
<circle class="st0" cx="7.1" cy="219" r="4"/>
<circle class="st0" cx="23.6" cy="219" r="4"/>
<circle class="st0" cx="40.1" cy="219" r="4"/>
<circle class="st0" cx="56.6" cy="219" r="4"/>
<circle class="st0" cx="73.1" cy="219" r="4"/>
<circle class="st0" cx="89.5" cy="219" r="4"/>
<circle class="st0" cx="106" cy="219" r="4"/>
<circle class="st0" cx="122.5" cy="219" r="4"/>
<circle class="st0" cx="139" cy="219" r="4"/>
<circle class="st0" cx="155.4" cy="219" r="4"/>
<circle class="st0" cx="171.9" cy="219" r="4"/>
<circle class="st0" cx="188.4" cy="219" r="4"/>
<circle class="st0" cx="204.9" cy="219" r="4"/>
<circle class="st0" cx="221.3" cy="219" r="4"/>
<circle class="st0" cx="237.8" cy="219" r="4"/>
<circle class="st0" cx="254.3" cy="219" r="4"/>
<circle class="st0" cx="270.8" cy="219" r="4"/>
<circle class="st0" cx="287.3" cy="219" r="4"/>
<circle class="st0" cx="7.1" cy="234" r="4"/>
<circle class="st0" cx="23.6" cy="234" r="4"/>
<circle class="st0" cx="40.1" cy="234" r="4"/>
<circle class="st0" cx="56.6" cy="234" r="4"/>
<circle class="st0" cx="73.1" cy="234" r="4"/>
<circle class="st0" cx="89.5" cy="234" r="4"/>
<circle class="st0" cx="106" cy="234" r="4"/>
<circle class="st0" cx="122.5" cy="234" r="4"/>
<circle class="st0" cx="139" cy="234" r="4"/>
<circle class="st0" cx="155.4" cy="234" r="4"/>
<circle class="st0" cx="171.9" cy="234" r="4"/>
<circle class="st0" cx="188.4" cy="234" r="4"/>
<circle class="st0" cx="204.9" cy="234" r="4"/>
<circle class="st0" cx="221.3" cy="234" r="4"/>
<circle class="st0" cx="237.8" cy="234" r="4"/>
<circle class="st0" cx="254.3" cy="234" r="4"/>
<circle class="st0" cx="270.8" cy="234" r="4"/>
<circle class="st0" cx="287.3" cy="234" r="4"/>
</svg>
